<?xml version="1.0" encoding="UTF-8"?>
<svg id="Layer_1" data-name="Layer 1" xmlns="http://www.w3.org/2000/svg" viewBox="0 0 3577.59 3691.07">
  <defs>
    <style>
      .cls-1 {
        fill: #db0261;
      }

      .cls-2 {
        fill: #dc8946;
      }

      .cls-3 {
        fill: #dc8b48;
      }

      .cls-4 {
        fill: #d93a60;
      }

      .cls-5 {
        fill: #fdfcfd;
      }

      .cls-6 {
        fill: #db0463;
      }

      .cls-7 {
        fill: #fefeff;
      }

      .cls-8 {
        fill: #d83a5f;
      }

      .cls-9 {
        fill: #34acc6;
      }

      .cls-10 {
        fill: #fffffe;
      }

      .cls-11 {
        fill: #fff;
      }

      .cls-12 {
        fill: #fffefe;
      }

      .cls-13 {
        fill: #32abc6;
      }

      .cls-14 {
        fill: #fefefe;
      }

      .cls-15 {
        fill: #d63b5f;
      }

      .cls-16 {
        fill: #dd8648;
      }

      .cls-17 {
        fill: #4a7450;
      }

      .cls-18 {
        fill: #d9854a;
      }
    </style>
  </defs>
  <path class="cls-17" d="M3128,628.64L744,2144.64c-47.3-.02-94.7.05-142,0l354-332c.35,0,3.1-2.13,6.76-2.15,55.08-.28,110.19.5,165.25.16.02-52.64-.06-105.37-.01-158.01L2654,236.64c183.47,104.33,336.8,231.45,474,392Z"/>
  <path class="cls-13" d="M3542,1476.64c37.77,189.81,44.97,382.13,24,574l-2482,274c0-45.3.2-90.7,0-136l2458-712Z"/>
  <path class="cls-17" d="M926,2456.64l2328,440c-101.81,150.33-220.73,283.6-363.05,397.95-16.63,13.37-50.99,43.36-67.92,52.11-3.17,1.63-5.27,2.69-9.03,1.94L484,2456.64c147.3-.37,294.7.23,442,0Z"/>
  <path class="cls-13" d="M1668,2.64l-820,1486c-70.59.18-143.43,0-214,0L1036,160.64C1234.25,69.38,1448.78,13.94,1668,2.64Z"/>
  <path class="cls-11" d="M3444,1148.64c42.45,107.18,75.44,214.62,98,328l-2458,712c-.06-14.64.04-29.37.01-44.01-41.3-.03-82.71.07-124.01.01l2484-996Z"/>
  <path class="cls-12" d="M3318,892.64L848,2144.64c-34.63-.03-69.37.01-104,0L3128,628.64c73.66,86.2,131.89,166.15,190,264Z"/>
  <path class="cls-4" d="M3318,892.64c49.39,83.16,90.43,166.2,126,256l-2484,996c-37.3-.06-74.7.03-112,0L3318,892.64Z"/>
  <path class="cls-11" d="M3566,2050.64c-11.4,104.33-29.86,203.01-58,304l-2424,34v-64l2482-274Z"/>
  <path class="cls-10" d="M2654,236.64l-1526,1416c.05-53.97-.04-108.03,0-162L2336,92.64c114.17,38.46,214.15,84.95,318,144Z"/>
  <path class="cls-2" d="M3508,2354.64c-27.07,97.13-61.84,187.42-104,278l-2320-182v-62l2424-34Z"/>
  <path class="cls-11" d="M2034,18.64L998,1488.64c-49.93-.57-100.06-.12-150,0L1668,2.64c121.79-6.28,245.42-1.52,366,16Z"/>
  <path class="cls-14" d="M3404,2632.64c-45.47,97.69-89.73,175.01-150,264l-2328-440c52.28-.08,104.62-.05,156.92.13l1.08-6.13,2320,182Z"/>
  <path class="cls-2" d="M2336,92.64l-1208,1398c-41.04-.53-82.18.65-123.24.15-3.64-.04-6.41-2.14-6.76-2.15L2034,18.64c103.74,15.07,203.45,40.8,302,74Z"/>
  <path class="cls-14" d="M484,2456.64l2330,892c-4.64,9.65-18.39,17.31-27.37,23.63-81.72,57.55-168.41,105.59-258.63,148.37L470,2456.64c4.66-.02,9.34.01,14,0Z"/>
  <path class="cls-4" d="M470,2456.64l2058,1064c-97.93,46.43-189.18,80.02-294,108l-1062-682c-.07-35.31.04-70.7.01-106.01-55.3-.02-110.71.06-166.01.01l-518.17-334.83c-11.37-7.35-25-13.99-35.83-21.17-12.06-8-24.51-17.17-34-28,17.29-.25,34.7.06,52,0Z"/>
  <path class="cls-13" d="M1898,3686.64c-198.92,14.3-396.31-6.21-588-58l-362-466c74.64-.06,149.37.04,224.01.01.05-26.64-.1-53.37-.01-80.01l726,604Z"/>
  <path class="cls-7" d="M1036,160.64l-402,1328c-33.97,0-68.03-.15-102,0l206-1154c95.67-68.3,189.83-124.21,298-174Z"/>
  <path class="cls-8" d="M738,334.64l-206,1154c-44.08.2-89.93.15-134,0l48-896c91.1-100.73,182.36-179.73,292-258Z"/>
  <path class="cls-14" d="M2234,3628.64c-111.27,29.71-220.71,49.71-336,58l-726-604c.15-45.3.09-90.7,0-136l1062,682Z"/>
  <path class="cls-12" d="M398,1488.64c-55.3-.19-110.7-.16-166,0l-30-552c64.92-124.08,149.93-239.97,244-344l-48,896Z"/>
  <path class="cls-16" d="M232,1488.64c-.35,0-2.23,1.99-4,2l-228-2c29.27-153.01,77.46-302.62,143.65-443.35,15.39-32.72,33.61-71.23,51.96-102.06,1.68-2.83,3.2-5.28,6.39-6.59l30,552Z"/>
  <path class="cls-14" d="M948,3162.64l362,466c-96.21-25.99-187.49-58.47-278-100l-216-366c43.97-.01,88.03.04,132,0Z"/>
  <path class="cls-1" d="M816,3162.64l216,366c-84.84-38.93-158.3-80.78-236-132l-104-234c41.3-.03,82.7.01,124,0Z"/>
  <path class="cls-9" d="M418,2456.64c9.49,10.83,21.94,20,34,28l426,356c-61.97-.03-124.03.03-186,0l-286-364c-3.9-3.43-3.79-10.29-10-10,.15-3.32-.13-6.69-.01-10.01,7.31-.06,14.7.12,22.01.01Z"/>
  <path class="cls-9" d="M538,1810.64c2.08,3.32,7.59,1.99,10.97,2.03,38.3.47,76.74.09,115.03-.03.67,0,1.33,0,2,0l-180,332c-17.3-.05-34.7.09-52,0l100-332c.36,0,2.22-1.98,4-2Z"/>
  <path class="cls-14" d="M766,1812.64l-232,332c-15.97-.02-32.03.04-48,0l180-332c33.31-.14,66.69.09,100,0Z"/>
  <path class="cls-5" d="M956,1812.64l-354,332c-11.97-.01-24.03,0-36,0l284-332c35.3.2,70.7.12,106,0Z"/>
  <path class="cls-5" d="M1006,2840.64c-42.63-.04-85.37.02-128,0l-426-356c10.83,7.18,24.46,13.82,35.83,21.17l518.17,334.83Z"/>
  <path class="cls-5" d="M692,3162.64l104,234c-66.32-43.72-132.37-89.2-190-144l-26-90c37.3-.07,74.7.03,112,0Z"/>
  <path class="cls-6" d="M406,2476.64l216,364c-27.3-.02-54.7.03-82,0-3.13-13.51-9.92-26.72-15.65-39.35-41.37-91.19-83.94-181.96-126.35-272.65l-2-4c.09-19.18-.86-38.9,0-58,6.21-.29,6.1,6.57,10,10Z"/>
  <path class="cls-3" d="M770,1810.64c2.08,3.32,7.59,1.99,10.97,2.03,17.98.22,36.07.19,54.06,0,3.38-.04,8.9,1.28,10.97-2.03,1.77,0,3.65,2,4,2l-284,332c-10.64,0-21.36.01-32,0l232-332c.35,0,2.23-1.99,4-2Z"/>
  <path class="cls-15" d="M400,1812.64c21-2.68,51.64.25,74,0l-58,332c-6.65-.12-13.37.09-20.01.01l-.03-330.82c-.23-2.18,2.58-1.01,4.04-1.19Z"/>
  <path class="cls-5" d="M406,2476.64l286,364c-23.3-.01-46.7.02-70,0l-216-364Z"/>
  <path class="cls-5" d="M534,1812.64l-100,332c-5.98-.03-12.02.11-18,0l58-332c.67,0,1.33,0,2,0,19.3-.24,38.7.22,58,0Z"/>
  <path class="cls-5" d="M540,2840.64c-20.64-.02-41.36.07-62,0l-82-256c.02-18.64-.07-37.36,0-56h2c42.41,90.68,84.98,181.46,126.35,272.65,5.73,12.63,12.52,25.84,15.65,39.35Z"/>
  <path class="cls-18" d="M396,2584.64l82,256c-27.3-.09-54.71.06-82.01.01.1-85.3-.1-170.71.01-256.01Z"/>
  <path class="cls-18" d="M580,3162.64l26,90-97.99-89.01c23.86-1.84,48.05-.94,71.99-.99Z"/>
  <path class="cls-8" d="M228,1490.64c-74.33.27-148.72-.26-223.08.07l-4.92-2.07,228,2Z"/>
  <path class="cls-17" d="M664,1812.64c-38.29.12-76.73.51-115.03.03-3.38-.04-8.89,1.28-10.97-2.03,38.25-.45,76.75-.44,115.03-.03,3.38.04,8.9-1.28,10.97,2.03Z"/>
  <path class="cls-17" d="M846,1810.64c-2.08,3.31-7.59,2-10.97,2.03-17.99.19-36.07.22-54.06,0-3.38-.04-8.89,1.28-10.97-2.03,25.3-.08,50.7-.12,76,0Z"/>
  <path class="cls-17" d="M476,1812.64c-.67,0-1.33,0-2,0-22.36.25-53-2.68-74,0,2.08-3.32,7.59-1.99,10.97-2.03,17.98-.22,36.07-.19,54.06,0,3.38.04,8.9-1.28,10.97,2.03Z"/>
  <path class="cls-18" d="M398,2528.64h-2c0-1.33,0-2.67,0-4l2,4Z"/>
</svg>